<svg width="262" height="111" viewBox="0 0 262 111" fill="none" xmlns="http://www.w3.org/2000/svg">
<g clip-path="url(#clip0_5497_136086)">
<path d="M159.823 79.7488C158.605 79.547 157.178 78.1562 155.437 75.5633C154.415 73.8742 153.381 72.1675 152.355 70.4477C155.555 69.8554 157.082 68.0478 157.065 65.2092C157.094 64.4035 156.892 63.6063 156.485 62.912C156.077 62.2177 155.48 61.6553 154.765 61.2913C153.364 60.5502 151.794 60.1916 150.212 60.2515C149.471 60.2515 148.392 60.2909 146.965 60.348C144.689 60.4529 142.408 60.4221 140.135 60.2558H139.921V60.9008C139.921 60.9008 143.194 61.436 143.194 62.5241C143.225 62.7171 143.251 63.7043 143.251 65.1083V76.4276C143.275 77.1194 143.208 77.8114 143.05 78.4853C142.819 79.2399 140.405 79.8015 140.405 79.8015L140.275 80.5649H140.515C142.129 80.4274 143.702 80.3601 145.233 80.3631C146.765 80.3631 148.253 80.4289 149.706 80.5649H149.916V79.8761C149.916 79.8761 147.572 79.139 146.922 78.6959C146.59 78.4677 146.533 77.8974 146.529 77.0594C146.529 76.9015 146.529 76.3837 146.559 75.7432C146.59 75.1026 146.59 74.5498 146.59 74.0804V70.9303H148.646C150.874 73.9794 152.927 77.1537 154.795 80.4377L154.852 80.543C154.852 80.543 156.563 80.4377 157.379 80.4377C158.195 80.4377 159.077 80.4684 159.771 80.5342H159.985V79.7532L159.823 79.7488ZM148.541 69.1446H146.568V62.0942L149.383 62.0634C152.264 62.0985 153.56 63.2085 153.582 65.6084C153.582 67.0562 153.08 67.9864 152.08 68.5216C151.325 68.9296 150.16 69.149 148.541 69.1446Z" fill="#016D38"/>
<path d="M34.7195 71.1189C33.8106 70.5414 32.7927 70.159 31.7298 69.9958C32.5585 69.7836 33.3473 69.4368 34.0648 68.9691C34.6464 68.5958 35.1305 68.088 35.4768 67.488C35.823 66.8881 36.0213 66.2135 36.055 65.5207C36.0899 64.6995 35.906 63.8839 35.5224 63.1581C35.1387 62.4323 34.5692 61.8227 33.8728 61.3922C32.6507 60.5674 31.1101 60.2602 29.277 60.2602L24.4193 60.348C23.8694 60.348 23.3413 60.348 22.8394 60.348C20.9059 60.348 19.3478 60.2251 19.3478 60.2251V60.9227C19.3478 60.9227 22.3593 61.322 22.6211 62.7698C22.6517 62.9629 22.7433 77.6254 22.5033 78.1255C21.9141 79.3935 19.3478 79.7971 19.3478 79.7971V80.5298C19.3478 80.5298 21.2463 80.3455 23.35 80.3719C23.8301 80.3719 24.332 80.3719 24.8514 80.3719L30.1717 80.4991C31.8121 80.5516 33.4283 80.0918 34.798 79.1829C35.4919 78.7356 36.0579 78.1145 36.4406 77.3806C36.8232 76.6468 37.0092 75.8254 36.9803 74.9974C36.9864 74.206 36.7796 73.4277 36.3816 72.745C35.9836 72.0622 35.4093 71.5003 34.7195 71.1189ZM25.7199 65.1565C25.7199 64.1782 25.7199 63.2524 25.7898 61.9889C26.4313 61.9582 27.2606 61.9406 28.2077 61.9406C31.2104 61.9757 32.5722 62.9409 32.5722 65.4812C32.5504 67.8679 31.1232 68.8814 27.8585 68.9121H25.7461L25.7199 65.1565ZM28.0724 78.8451C28.0703 78.8537 28.0703 78.8627 28.0724 78.8714C28.0724 78.8714 28.0767 78.8538 28.0724 78.8451ZM27.9109 78.6959H27.8716L25.8072 78.6213C25.7723 77.9808 25.7679 77.4587 25.7679 76.8664V71.0619H27.6927C31.6207 71.0882 33.4232 72.4132 33.4407 75.1421C33.4276 77.7746 31.6993 78.6608 27.9109 78.6959Z" fill="#016D38"/>
<path d="M52.5746 59.8873C49.4802 59.8873 46.9793 60.8876 45.155 62.8927C43.3306 64.8977 42.4141 67.4511 42.4141 70.5793C42.4141 73.5013 43.287 75.9582 45.0633 77.893C46.8658 79.9024 49.2314 80.9071 52.1076 80.9071C55.1627 80.9071 57.6287 79.7796 59.4487 77.5508C61.1508 75.4668 61.9975 72.8475 61.9975 69.7194C61.9975 66.8588 61.1595 64.4984 59.4748 62.6996C57.716 60.8174 55.4028 59.8829 52.5746 59.8873ZM58.2048 71.1628C58.2048 73.3565 57.7683 75.1772 56.9216 76.59C56.4703 77.387 55.809 78.0435 55.0105 78.487C54.2119 78.9306 53.3071 79.144 52.3956 79.1039C50.1043 79.1039 48.4676 77.9895 47.3983 75.6906C46.5952 73.9839 46.185 71.7946 46.185 69.1315C46.185 67.0431 46.6825 65.3364 47.6689 63.9851C48.1802 63.2482 48.8672 62.652 49.6671 62.2511C50.4669 61.8502 51.3541 61.6575 52.2472 61.6905C56.2189 61.6905 58.196 64.731 58.2222 71.1584L58.2048 71.1628Z" fill="#016D38"/>
<path d="M78.3338 78.3405H72.6032V65.4593C72.6032 63.893 72.6337 63.1076 72.6643 62.7172C72.7603 61.401 76.1559 60.8833 76.1559 60.8833V60.2252C76.1559 60.2252 72.6643 60.4401 71.0494 60.4401C69.4346 60.4401 66.1176 60.2208 66.1176 60.2208V60.8701C66.1176 60.8701 69.3866 61.4185 69.3866 62.6601C69.4215 62.8619 69.4433 63.8052 69.4433 65.2048V76.0986C69.4433 77.1691 69.5 77.678 69.2469 78.1738C68.6228 79.3935 66.1176 79.7357 66.1176 79.7357V80.5298H66.3227C68.4133 80.407 70.7788 80.3455 73.3582 80.3455C75.9377 80.3455 78.7353 80.407 81.6944 80.5298H81.8908L82.1527 75.1465H81.306C81.306 75.1465 80.8695 78.459 78.3338 78.3405Z" fill="#016D38"/>
<path d="M95.604 54.8638C95.5927 54.4611 95.4252 54.0788 95.1374 53.7985C94.8495 53.5182 94.4641 53.362 94.0634 53.3633C93.7832 53.3857 93.5102 53.4636 93.2601 53.5923C93.0099 53.721 92.7875 53.8982 92.6057 54.1136L88.3939 59.023H89.9608L94.7617 56.2677C95.0077 56.1324 95.2164 55.9376 95.3687 55.7009C95.5211 55.4642 95.6125 55.1931 95.6346 54.9121L95.604 54.8638Z" fill="#016D38"/>
<path d="M90.7594 60.5015C89.5956 60.5015 88.0433 60.4196 86.1025 60.2558H85.8931V60.9183C85.8931 60.9183 88.6078 61.5282 88.9482 62.9497C89.1228 63.6429 89.0398 64.8319 89.0791 66.1042C89.0791 66.1042 89.1751 70.7899 89.1446 73.2994C89.1009 76.7084 88.9831 78.2133 88.132 78.924C87.3813 79.5514 85.8756 79.7445 85.8756 79.7445V80.5737H86.0851C87.9138 80.4157 89.4676 80.3324 90.742 80.3324C91.8506 80.3324 93.3607 80.4157 95.2767 80.5781H95.4862V79.7488C94.6783 79.6037 93.9025 79.3156 93.1948 78.8977C92.5969 78.459 92.1997 76.704 92.2303 73.3038C92.2303 72.8388 92.2739 66.363 92.2957 66.1173C92.3307 64.8362 92.2957 63.6473 92.3961 62.9409C92.5794 61.322 95.4862 60.9227 95.4862 60.9227V60.2383H95.2767C93.2821 60.4182 91.7676 60.5015 90.7594 60.5015Z" fill="#016D38"/>
<path d="M118.299 60.9359L118.452 60.9008V60.2251L118.234 60.2559C117.267 60.3803 116.293 60.4418 115.318 60.4401C114.216 60.4364 113.115 60.3749 112.019 60.2559H111.805V60.9052L111.936 60.9491C112.756 61.2123 113.913 61.5721 113.861 61.9713C113.512 63.8052 110.234 72.2377 109.383 74.3042C108.732 72.7861 104.508 62.3399 104.529 62.0766C104.529 62.0766 104.285 61.5106 106.795 60.9578L106.943 60.9227V60.2559C106.943 60.2559 104.124 60.4577 102.779 60.4577C99.4186 60.4577 98.4148 60.2559 98.4148 60.2559V60.9096C98.4148 60.9096 100.392 61.4141 100.968 62.7172C103.045 67.4467 105.442 73.5364 107.986 80.7974L108.03 80.929H109.007L109.055 80.7974C110.945 75.5809 114.956 65.1478 116.156 62.6514C116.356 62.2175 116.654 61.8365 117.026 61.5386C117.398 61.2408 117.834 61.0344 118.299 60.9359Z" fill="#016D38"/>
<path d="M128.416 59.7557L128.368 59.6285H126.924L126.876 59.7469C123.737 67.2449 122.699 69.5088 120.041 75.7564C119.644 76.6953 119.438 77.3753 119.019 78.165C118.478 79.1873 116.54 79.7752 116.54 79.7752V80.5781L116.754 80.5517C117.895 80.4321 119.042 80.3721 120.189 80.3719C121.355 80.3718 122.521 80.4319 123.681 80.5517H123.899V79.7532L121.354 78.7836C122.227 76.5461 122.764 75.1158 123.284 73.8786L126.653 73.9049L130.402 73.9663C131.048 75.5552 131.603 77.1797 132.065 78.8319C131.154 79.1949 130.218 79.4883 129.263 79.7094L129.115 79.7401V80.5605H129.324C130.681 80.4421 132.13 80.3806 133.64 80.3806C135.151 80.3806 136.726 80.4377 138.328 80.5649H138.537V79.7708C138.537 79.7708 136.792 79.297 136.194 78.6915C135.757 78.2528 135.103 76.3311 135.103 76.3311C130.956 66.2183 129.424 62.3881 128.416 59.7557ZM123.834 72.479L126.889 64.766L129.774 72.4527L123.834 72.479Z" fill="#016D38"/>
<path d="M38.4686 48.8882L34.9377 48.8575C34.8897 47.8265 34.8897 47.3263 34.8897 47.0455V45.2774H36.378C36.5962 45.2774 36.8494 45.2774 37.1243 45.2774C37.3993 45.2774 37.8445 45.2774 37.923 45.2774C38.2765 45.2774 38.7305 45.5758 38.9443 46.6463V46.7121H39.2062V46.5936C39.2062 45.9575 39.1844 45.3389 39.1844 44.7378C39.1844 44.1367 39.1844 43.5576 39.2062 42.9829V42.882H38.9487V42.9478C38.7697 43.891 38.3464 44.2245 37.9972 44.2289C37.9187 44.2289 37.408 44.2289 37.1243 44.2289C36.8406 44.2289 36.6006 44.2289 36.378 44.2289H34.8679V42.645C34.8679 42.3774 34.8679 41.9036 34.9421 41.07L36.9934 41.0436C37.1636 41.0436 37.3906 41.0436 37.6655 41.0436C37.9405 41.0436 38.2111 41.0436 38.2853 41.0436C38.6475 41.0436 39.2498 41.1665 39.4069 42.4081V42.4739H39.6732V42.3379C39.6732 42.1317 39.6732 41.9255 39.6732 41.7149C39.6732 41.184 39.6994 40.6356 39.7212 40.0697V39.9644H39.6164C38.2809 40.0214 36.9192 40.0521 35.5793 40.0521C34.2394 40.0521 32.9213 40.0258 31.6513 39.9644H31.5509V40.2934C31.5509 40.2934 33.1919 40.5347 33.1919 41.1051C33.1919 41.1972 33.2181 41.7412 33.2181 42.4213C33.2181 42.4213 33.3054 45.4486 33.2181 47.379C33.1876 48.0239 33.253 48.7873 33.1177 49.0242C32.7948 49.6034 31.564 49.7043 31.564 49.7043V50.0553H31.6687C33.2137 49.9631 34.8024 49.9193 36.0812 49.9193C37.36 49.9193 38.5733 49.9631 39.7037 50.0553H39.8129V49.9719C39.8129 49.1778 39.8129 48.3091 39.8783 47.4185V47.3132H39.6121C39.6121 47.3132 39.3939 48.8882 38.4686 48.8882ZM50.2527 45.3169C49.5544 45.3169 48.6815 45.2862 47.957 45.2555H47.8522V45.5363C47.8522 45.5363 49.4496 45.7381 49.4496 46.5278V48.8619C49.0324 49.0271 48.5887 49.1148 48.1403 49.1208C46.9051 49.1559 45.9275 48.7698 45.4125 48.1073C44.7619 47.2175 44.4145 46.1404 44.4217 45.0361C44.3553 43.9606 44.6794 42.8974 45.3339 42.044C45.9144 41.263 46.9662 40.8901 48.2363 40.8901C49.1092 40.8901 49.454 41.0129 49.7071 41.2586C49.9958 41.71 50.215 42.2025 50.3574 42.7196H50.6499V42.6187C50.6499 42.18 50.6237 41.7412 50.6193 41.3288C50.6149 40.9164 50.6193 40.4996 50.6499 40.1048V40.0126H50.5713C49.8535 39.8634 49.122 39.7913 48.3891 39.7976C46.8681 39.7728 45.3873 40.2887 44.2079 41.2542C43.6234 41.7303 43.1529 42.3323 42.8311 43.0158C42.5092 43.6993 42.3444 44.4467 42.3486 45.2029C42.3181 45.921 42.4555 46.6364 42.7495 47.2916C43.0436 47.9468 43.4863 48.5237 44.042 48.976C45.1766 49.8696 46.5911 50.327 48.0312 50.2659C49.034 50.2714 50.0318 50.1235 50.9903 49.8271L51.0863 49.7964V49.7218C51.0863 49.327 51.0558 48.195 51.0558 46.5454C51.0558 45.6679 52.2735 45.5231 52.2735 45.5231V45.2511H52.1731C51.4704 45.2774 50.9423 45.3169 50.2396 45.3169H50.2527ZM28.583 45.7162C27.9764 45.0361 26.3484 44.3254 25.6545 43.9612C24.8558 43.5225 24.463 43.0092 24.463 42.3906C24.475 42.045 24.5973 41.7125 24.8119 41.4423C25.0265 41.1721 25.3219 40.9784 25.6545 40.8901C25.8421 40.8374 26.9638 40.561 27.6054 41.0436C28.1117 41.4297 28.1335 42.5968 28.1335 42.5968H28.391L28.4914 40.3241C27.7526 39.9854 26.9509 39.8075 26.1389 39.802C25.3037 39.7775 24.4831 40.0253 23.7996 40.5084C23.3324 40.7965 22.9799 41.2395 22.803 41.7609C22.6261 42.2824 22.6359 42.8496 22.8306 43.3646C23.1842 44.5184 25.2529 45.5582 25.8858 45.9092C27.6316 46.7867 27.1951 48.0766 27.1951 48.0766C27.0853 48.3543 26.9078 48.5998 26.679 48.7907C26.4503 48.9815 26.1775 49.1116 25.8858 49.169C25.4493 49.2875 23.8607 49.2743 23.6075 48.897C23.4302 48.2963 23.3146 47.6788 23.2627 47.0543L22.8656 47.1465L22.5906 49.8052C23.341 50.1099 24.1424 50.2678 24.9518 50.2702C25.9014 50.3178 26.8452 50.0958 27.6752 49.6297C28.1021 49.4132 28.4591 49.0793 28.7048 48.6669C28.9505 48.2545 29.0747 47.7805 29.0631 47.3C29.0891 46.7323 28.9196 46.1729 28.583 45.7162ZM84.3742 39.7933C83.6842 39.76 82.9951 39.8769 82.3541 40.1358C81.7131 40.3948 81.1353 40.7897 80.66 41.2937C79.7237 42.3453 79.2321 43.7225 79.2896 45.1327C79.2422 46.4748 79.7111 47.7837 80.599 48.7873C81.0414 49.2797 81.5853 49.6691 82.1929 49.9282C82.8005 50.1874 83.4571 50.3101 84.1167 50.2878C84.8152 50.3129 85.5099 50.1746 86.1461 49.8837C86.7823 49.5929 87.3426 49.1575 87.7829 48.6118C88.6562 47.5024 89.1081 46.1166 89.0573 44.7027C89.1082 43.4122 88.6555 42.1527 87.796 41.1928C87.3564 40.7288 86.8245 40.3632 86.2349 40.1198C85.6453 39.8764 85.0113 39.7606 84.3742 39.7801V39.7933ZM87.185 45.4222C87.2224 46.3661 87.0021 47.3023 86.5477 48.1292C86.3208 48.5282 85.989 48.8567 85.5887 49.0788C85.1884 49.3009 84.735 49.408 84.2782 49.3884C83.1347 49.3884 82.3229 48.8312 81.7861 47.6861C81.3543 46.6469 81.1547 45.5252 81.2013 44.4C81.1645 43.4861 81.425 42.5851 81.9432 41.8334C82.1974 41.4649 82.5397 41.1665 82.9385 40.9656C83.3374 40.7648 83.78 40.6679 84.2258 40.6839C86.2117 40.6839 87.1981 42.2063 87.2111 45.4135L87.185 45.4222ZM63.0581 40.0565C62.3903 40.0565 61.7095 40.0302 61.0635 39.9687H60.9588V40.3066C60.9588 40.3066 62.2027 40.4952 62.386 41.0393C62.5312 41.8661 62.597 42.705 62.5824 43.5444C62.5824 43.891 62.5824 47.4931 61.9931 48.2608C61.7708 48.5361 61.4879 48.7559 61.1668 48.9028C60.8458 49.0497 60.4952 49.1198 60.1426 49.1076C59.0646 49.1076 58.4405 48.8224 58.0171 48.3003C57.0089 47.0631 57.5065 41.75 57.5152 41.3508C57.5152 40.6049 59.117 40.3197 59.117 40.3197V39.9687H59.0122C58.2179 40.0302 57.3886 40.0565 56.5768 40.0565C55.765 40.0565 54.9707 40.0302 54.2418 39.9687H54.1371V40.3241C54.1371 40.3241 55.8349 40.6663 55.8349 41.5131C55.8349 41.8114 55.5643 44.6764 55.5817 45.8522C55.5817 47.1684 55.813 48.195 56.2975 48.9233C56.9478 49.8359 58.3444 50.2878 59.8502 50.2878C61.4214 50.2878 62.6085 49.735 63.2108 48.6206C63.6066 47.8572 63.8044 46.715 63.8044 45.1941C63.8044 45.1195 63.8044 45.0449 63.8044 44.9659C63.8044 43.7945 63.8044 42.8951 63.8044 42.2677C63.8044 41.6403 63.8044 41.2762 63.8044 41.206C63.8655 40.4689 65.1138 40.3285 65.1138 40.3285V39.9951H65.009C64.3849 40.0126 63.7433 40.0565 63.0581 40.0565ZM71.787 44.4219H70.805V40.8901H72.1973C73.642 40.8901 74.2835 41.4604 74.2966 42.645C74.3276 42.9345 74.2729 43.2267 74.1394 43.4851C74.0058 43.7434 73.7994 43.9564 73.5459 44.0972C72.9902 44.3433 72.3847 44.4545 71.7783 44.4219H71.787ZM75.2219 47.6203C74.7156 46.7779 74.2006 45.9268 73.69 45.0712C75.283 44.7729 76.0424 43.8779 76.0337 42.4388C76.0487 42.037 75.9485 41.6394 75.7449 41.2932C75.5414 40.9471 75.2432 40.667 74.8858 40.4865C74.1887 40.1138 73.4052 39.9351 72.6163 39.9687C72.2497 39.9687 71.7129 39.9687 71.0014 40.0126C70.29 40.0565 69.5699 40.0433 69.2164 40.0433C68.6184 40.0433 68.0816 40.017 67.5972 39.9687H67.4924V40.3636C67.4924 40.3636 68.9807 40.4777 69.1204 41.1709C69.1204 41.2674 69.1509 41.6886 69.1509 42.3906V47.9976C69.1591 48.3719 69.124 48.7459 69.0462 49.112C68.9283 49.5507 67.7368 49.7569 67.7368 49.7569L67.6713 50.1035H67.7935C68.5923 50.0377 69.3779 50.0026 70.1416 50.0026C70.9054 50.0026 71.6474 50.0377 72.3719 50.1035H72.4766V49.7964C71.9678 49.6578 71.4802 49.4496 71.0276 49.1778C70.8705 49.0506 70.792 48.8663 70.7876 48.4451C70.7876 48.3661 70.7876 48.0064 70.7876 47.708C70.7876 47.4097 70.7876 47.1157 70.7876 46.8788V45.3125H71.8089C72.9159 46.8324 73.9359 48.4144 74.864 50.0509L74.8946 50.1035H74.9557C75.331 50.0728 75.7456 50.0553 76.1515 50.0553C76.5574 50.0553 77.0244 50.0553 77.378 50.1035H77.4871V49.7174H77.4041C76.8368 49.6078 76.0817 48.9102 75.2132 47.6203H75.2219ZM97.3062 45.7469C97.2766 45.7069 97.2445 45.6688 97.2102 45.6328C96.9451 45.3457 96.6374 45.1015 96.298 44.9089C95.6433 44.5799 95.124 44.3254 94.43 43.9832C93.6313 43.5444 93.256 43.0223 93.256 42.4037C93.2522 42.1813 93.2962 41.9607 93.3851 41.757C93.474 41.5534 93.6056 41.3714 93.771 41.2235C93.8206 41.1747 93.8747 41.1306 93.9324 41.0919L93.9805 41.0612C94.1142 40.9767 94.2621 40.9173 94.4169 40.8857C94.6503 40.8229 94.8911 40.7919 95.1327 40.7936C95.3342 40.794 95.5355 40.8086 95.735 40.8374C95.9426 40.8506 96.1471 40.895 96.3417 40.9691L96.8959 42.5924H97.1665L97.2625 40.3197L97.2058 40.2934C96.4857 39.9665 95.7046 39.7975 94.9145 39.7976C94.0718 39.7629 93.241 40.0064 92.5489 40.4908C92.2036 40.7305 91.9233 41.053 91.7335 41.4292C91.5437 41.8055 91.4504 42.2234 91.4621 42.645C91.4621 42.9267 91.5123 43.2061 91.6105 43.4699C91.8878 44.0734 92.3456 44.5749 92.9199 44.9045L93.0508 44.9791L93.1032 45.0098C93.6837 45.3433 94.1638 45.6723 94.8053 46.0189C95.6128 46.4884 95.9838 47.0017 95.9838 47.5501C95.9829 47.7348 95.961 47.9188 95.9183 48.0985C95.8044 48.3857 95.6144 48.6361 95.3689 48.8225C95.1235 49.0089 94.832 49.1242 94.526 49.1559C94.2879 49.1945 94.0471 49.2136 93.8059 49.2129C93.2892 49.2369 92.7764 49.1137 92.3263 48.8575L92.0121 47.0324L91.6847 47.107H91.6193L91.3443 49.7657L91.4141 49.7964C92.1426 50.0849 92.9182 50.2337 93.7011 50.2352C94.6508 50.2681 95.5921 50.047 96.4289 49.5946C96.8507 49.3702 97.2012 49.0312 97.4405 48.6161C97.6797 48.2011 97.798 47.7268 97.7819 47.2474C97.7863 46.7077 97.6163 46.1811 97.2975 45.7469H97.3062Z" fill="#016D38"/>
<path d="M234.899 25.3048H180.185V80.7519H234.899V25.3048Z" fill="#FFDC5D"/>
<path fill-rule="evenodd" clip-rule="evenodd" d="M208.201 27.2358C215.736 24.4937 220.686 28.3785 220.686 28.3785C220.686 28.3785 216.396 27.5039 212.43 28.5796L208.201 27.2358Z" fill="#016D38"/>
<path fill-rule="evenodd" clip-rule="evenodd" d="M211.88 30.7777C219.046 29.7403 220.659 32.1055 220.659 32.1055C220.659 32.1055 219.113 31.6491 215.703 32.2747L211.88 30.7777Z" fill="#016D38"/>
<path fill-rule="evenodd" clip-rule="evenodd" d="M206.238 58.3247C209.886 55.1615 214.106 55.9627 215.5 57.8332C217.501 60.5144 216.17 63.4318 213.789 65.5832C213.789 65.5832 216.745 62.3242 214.424 59.1993C213.449 57.881 210.372 57.1948 207.679 59.4674C204.987 61.7401 203.393 66.6461 208.34 68.5804C202.542 68.8198 201.58 62.3689 206.238 58.3247Z" fill="#016D38"/>
<path fill-rule="evenodd" clip-rule="evenodd" d="M225.134 46.1552C249.773 35.657 251.151 63.0373 207.989 90.0664C239.175 63.6916 246.258 42.941 225.134 46.1552Z" fill="#016D38"/>
<path fill-rule="evenodd" clip-rule="evenodd" d="M188.549 61.097C163.335 72.2687 180.173 80.7433 180.173 80.7433C180.173 80.7433 171.593 71.0558 188.549 61.097Z" fill="#016D38"/>
<path fill-rule="evenodd" clip-rule="evenodd" d="M210.927 80.7435C224.148 72.7829 215.353 64.902 215.353 64.902C215.353 64.902 221.326 73.051 206.574 80.7435H210.927Z" fill="#016D38"/>
<path fill-rule="evenodd" clip-rule="evenodd" d="M188.25 63.8713C190.289 60.0541 191.636 55.9027 192.229 51.6111C192.229 51.6111 194.829 59.7409 188.25 63.8713Z" fill="#016D38"/>
<path fill-rule="evenodd" clip-rule="evenodd" d="M183.84 64.2705C183.84 64.2705 170.168 51.5281 191.629 40.9691C197.807 37.9303 206.193 37.592 209.914 42.7821C211.038 44.3462 211.857 53.2263 199.401 63.2522C194.655 61.7233 193.8 58.8856 193.8 58.8856C195.887 61.3434 199.278 61.3115 199.278 61.3115C207.444 54.9276 209.336 45.0325 207.825 43.5482C204.447 40.2317 198.579 40.618 192.635 43.2992C174.369 51.5377 183.84 64.2705 183.84 64.2705Z" fill="#016D38"/>
<path fill-rule="evenodd" clip-rule="evenodd" d="M192.749 80.7411H188.25C188.25 80.7411 193.87 71.1653 204.085 69.5693C199.028 71.7044 194.973 75.7006 192.749 80.7411Z" fill="#016D38"/>
<path fill-rule="evenodd" clip-rule="evenodd" d="M194.83 31.2022C194.83 31.2022 195.109 25.8653 203.387 22.7627C205.973 21.7498 208.781 21.4507 211.52 21.8963C214.26 22.3419 216.831 23.5161 218.967 25.2971C218.967 25.2971 205.235 19.3153 198.421 30.018C198.3 30.2095 201.228 31.5821 201.228 31.5821C201.228 31.5821 203.028 43.6828 210.817 48.1165C214.173 47.1206 216.64 43.5711 216.64 43.5647C216.64 43.5583 216.348 47.8451 210.959 50.1433C200.929 45.0554 198.681 32.9067 198.681 32.9067C198.681 32.9067 195.049 32.0768 194.83 31.2022Z" fill="#016D38"/>
<path fill-rule="evenodd" clip-rule="evenodd" d="M198.673 46.6237C181.14 51.2647 188.027 58.67 188.027 58.67C188.027 58.67 186.274 52.7681 198.673 46.6237Z" fill="#016D38"/>
<path fill-rule="evenodd" clip-rule="evenodd" d="M219.826 34.7107C219.826 34.7107 217.892 37.5835 219.191 40.9701C220.461 44.2482 224.45 46.4571 224.45 46.4571C224.45 46.4571 220.382 40.7052 219.826 34.7107Z" fill="#016D38"/>
</g>
<defs>
<clipPath id="clip0_5497_136086">
<rect width="262" height="111" fill="white"/>
</clipPath>
</defs>
</svg>
